# Blender v2.79 (sub 0) OBJ File: 'modular4.blend'
# www.blender.org
o Corridor_Plane.003
v -10.000000 0.000000 2.000000
v -10.000000 6.000000 2.000000
v 10.000000 0.000000 2.000000
v 10.000000 6.000000 2.000000
v -10.000000 0.000000 -2.000000
v -10.000000 6.000000 -2.000000
v 10.000000 0.000000 -2.000000
v 10.000000 6.000000 -2.000000
vn 0.0000 0.0000 -1.0000
vn 0.0000 0.0000 1.0000
vn 0.0000 1.0000 0.0000
s off
f 2//1 3//1 1//1
f 7//2 6//2 5//2
f 3//3 5//3 1//3
f 2//1 4//1 3//1
f 7//2 8//2 6//2
f 3//3 7//3 5//3
