# Blender v2.79 (sub 0) OBJ File: 'modular4.blend'
# www.blender.org
o Corridor_TB_Plane.006
v 2.000000 0.000000 2.000000
v 2.000000 6.000000 2.000000
v 2.000000 0.000000 10.000000
v 2.000000 6.000000 10.000000
v -2.000000 0.000000 10.000000
v -2.000000 6.000000 10.000000
v -2.000000 0.000000 2.000000
v -2.000000 6.000000 2.000000
vn -1.0000 0.0000 0.0000
vn 1.0000 0.0000 0.0000
vn 0.0000 1.0000 0.0000
s off
f 1//1 4//1 2//1
f 5//2 8//2 6//2
f 7//3 3//3 1//3
f 1//1 3//1 4//1
f 5//2 7//2 8//2
f 7//3 5//3 3//3
