# Blender v2.79 (sub 0) OBJ File: 'modular8.blend'
# www.blender.org
o Wall_DoorCentre_Plane.001
v 9.000000 0.000000 10.000000
v 9.000000 6.000000 10.000000
v 9.000000 0.000000 2.000000
v 9.000000 6.000000 2.000000
v 10.000000 0.000000 2.000000
v 10.000000 6.000000 2.000000
v 10.000000 0.000000 10.000000
v 10.000000 6.000000 10.000000
v 9.000000 0.000000 -10.000000
v 9.000000 6.000000 -10.000000
v 9.000000 0.000000 -2.000000
v 9.000000 6.000000 -2.000000
v 10.000000 0.000000 -2.000000
v 10.000000 6.000000 -2.000000
v 10.000000 0.000000 -10.000000
v 10.000000 6.000000 -10.000000
vt 0.000104 0.000104
vt 0.888622 0.666493
vt 0.000104 0.666493
vt 0.999896 0.666493
vt 0.888831 0.000104
vt 0.999896 0.000104
vt 0.571411 0.428590
vt 0.000126 0.000126
vt 0.571411 0.000126
vt 0.000126 0.857556
vt 0.571410 0.928967
vt 0.000126 0.928967
vt 0.888622 0.666493
vt 0.000104 0.000104
vt 0.000104 0.666493
vt 0.888831 0.000104
vt 0.999896 0.666493
vt 0.999896 0.000104
vt 0.000126 0.000126
vt 0.571411 0.428590
vt 0.571411 0.000126
vt 0.571410 0.928967
vt 0.000126 0.857556
vt 0.000126 0.928967
vt 0.888623 0.000104
vt 0.888831 0.666493
vt 0.000126 0.428590
vt 0.571410 0.857556
vt 0.888623 0.000104
vt 0.888831 0.666493
vt 0.000126 0.428590
vt 0.571410 0.857556
vn -1.0000 0.0000 0.0000
vn 0.0000 0.0000 -1.0000
vn 1.0000 0.0000 0.0000
vn 0.0000 1.0000 0.0000
vn 0.0000 0.0000 1.0000
s off
f 2/1/1 3/2/1 1/3/1
f 4/4/2 5/5/2 3/6/2
f 6/7/3 7/8/3 5/9/3
f 8/10/4 4/11/4 2/12/4
f 7/8/5 2/12/5 1/3/5
f 11/13/1 10/14/1 9/15/1
f 13/16/5 12/17/5 11/18/5
f 15/19/3 14/20/3 13/21/3
f 12/22/4 16/23/4 10/24/4
f 10/24/2 15/19/2 9/15/2
f 2/1/1 4/25/1 3/2/1
f 4/4/2 6/26/2 5/5/2
f 6/7/3 8/27/3 7/8/3
f 8/10/4 6/28/4 4/11/4
f 7/8/5 8/27/5 2/12/5
f 11/13/1 12/29/1 10/14/1
f 13/16/5 14/30/5 12/17/5
f 15/19/3 16/31/3 14/20/3
f 12/22/4 14/32/4 16/23/4
f 10/24/2 16/31/2 15/19/2
